<svg xmlns="http://www.w3.org/2000/svg"><symbol id="icon-arrow_next" viewBox="0 0 50 50"><circle cx="25" cy="25" r="25"/><path d="M20 15l10 10-10 10" stroke-width="3" stroke-linecap="round"/></symbol><symbol id="icon-arrow_prev" viewBox="0 0 50 50"><circle cx="25" cy="25" r="25"/><path d="M30 15L20 25l10 10" stroke-width="3" stroke-linecap="round"/></symbol><symbol id="icon-phone" viewBox="0 0 32 32"><path d="M20.067 6.667a6.667 6.667 0 015.266 5.266m-5.266-10.6a12 12 0 0110.6 10.587" stroke-width="2" stroke-linecap="round" stroke-linejoin="round"/><path d="M29.333 22.56v4a2.666 2.666 0 01-2.906 2.667 26.387 26.387 0 01-11.507-4.094 26 26 0 01-8-8 26.387 26.387 0 01-4.093-11.56A2.667 2.667 0 015.48 2.667h4a2.666 2.666 0 012.666 2.293c.17 1.28.482 2.537.934 3.747a2.667 2.667 0 01-.6 2.813l-1.694 1.693a21.333 21.333 0 008 8l1.694-1.693a2.666 2.666 0 012.813-.6 17.16 17.16 0 003.747.933 2.667 2.667 0 012.293 2.707z"/></symbol><symbol id="icon-telegram" viewBox="0 0 28 24"><path d="M27.92 2.124l-4.225 19.8c-.32 1.398-1.15 1.746-2.332 1.088l-6.438-4.714-3.107 2.969c-.343.342-.63.627-1.294.627l.463-6.515L22.92 4.665c.519-.46-.113-.715-.806-.255L7.362 13.64l-6.35-1.975c-1.382-.428-1.407-1.372.287-2.031L26.14.124c1.15-.428 2.156.255 1.781 2z"/></symbol><symbol id="icon-vaiber" viewBox="0 0 28 28"><path fill-rule="evenodd" clip-rule="evenodd" d="M20.415 16.78c-.35-.175-2.062-1.012-2.38-1.13-.32-.115-.552-.172-.785.176-.232.345-.899 1.127-1.102 1.358-.204.232-.407.26-.755.087-.348-.175-1.471-.54-2.802-1.72-1.035-.92-1.734-2.055-1.937-2.403-.203-.346-.023-.534.152-.707.157-.155.348-.404.523-.606.175-.203.232-.348.348-.58.117-.231.059-.433-.03-.607-.086-.174-.782-1.88-1.073-2.575-.283-.675-.57-.583-.783-.595a15.714 15.714 0 00-.668-.011c-.232 0-.61.086-.929.434-.32.346-1.219 1.185-1.219 2.892 0 1.697 1.234 3.337 1.42 3.582l.002.004c.175.231 2.456 3.734 5.95 5.235.833.357 1.481.57 1.986.73.835.264 1.595.227 2.195.137.668-.1 2.06-.839 2.352-1.649.29-.81.29-1.503.202-1.648-.086-.145-.319-.231-.668-.405h.001zM23.92 4.07a13.854 13.854 0 00-4.52-3.02A13.908 13.908 0 0014.058 0C6.375 0 .12 6.224.118 13.874a13.79 13.79 0 001.86 6.936L0 28l7.39-1.93a13.98 13.98 0 006.663 1.69h.006c7.683 0 13.939-6.224 13.94-13.875a13.732 13.732 0 00-1.051-5.315 13.787 13.787 0 00-3.028-4.5z"/></symbol></svg>