<svg width="32" height="32" viewBox="0 0 32 32" fill="none" xmlns="http://www.w3.org/2000/svg">
<path d="M20.0667 6.66671C21.369 6.92079 22.5658 7.55772 23.5041 8.49595C24.4423 9.43419 25.0792 10.6311 25.3333 11.9334M20.0667 1.33337C22.7724 1.63396 25.2954 2.84561 27.2216 4.76938C29.1478 6.69316 30.3627 9.21472 30.6666 11.92" stroke="#05BB6E" stroke-width="2" stroke-linecap="round" stroke-linejoin="round"/>
<path d="M29.3332 22.56V26.56C29.3347 26.9313 29.2586 27.2989 29.1098 27.6391C28.9611 27.9793 28.7429 28.2847 28.4693 28.5358C28.1956 28.7868 27.8726 28.9779 27.5208 29.0969C27.1691 29.2159 26.7963 29.2601 26.4265 29.2266C22.3236 28.7808 18.3825 27.3788 14.9198 25.1333C11.6983 23.0862 8.96694 20.3549 6.91983 17.1333C4.66647 13.6549 3.26415 9.69463 2.8265 5.5733C2.79318 5.20459 2.837 4.83298 2.95516 4.48213C3.07333 4.13128 3.26326 3.80889 3.51285 3.53546C3.76244 3.26204 4.06624 3.04358 4.40488 2.894C4.74353 2.74441 5.10962 2.66698 5.47983 2.66663H9.47983C10.1269 2.66026 10.7542 2.8894 11.2448 3.31134C11.7355 3.73328 12.0559 4.31923 12.1465 4.95997C12.3153 6.24005 12.6284 7.49694 13.0798 8.70663C13.2592 9.18386 13.298 9.70252 13.1917 10.2011C13.0854 10.6998 12.8383 11.1574 12.4798 11.52L10.7865 13.2133C12.6846 16.5514 15.4484 19.3152 18.7865 21.2133L20.4798 19.52C20.8423 19.1615 21.3 18.9144 21.7987 18.8081C22.2973 18.7017 22.8159 18.7406 23.2932 18.92C24.5029 19.3714 25.7597 19.6845 27.0398 19.8533C27.6875 19.9447 28.279 20.2709 28.7019 20.77C29.1247 21.269 29.3494 21.9061 29.3332 22.56Z" fill="#05BB6E"/>
</svg>
