<svg width="28" height="28" viewBox="0 0 28 28" fill="none" xmlns="http://www.w3.org/2000/svg">
<path fill-rule="evenodd" clip-rule="evenodd" d="M20.4153 16.7791C20.0659 16.6052 18.3532 15.7676 18.0344 15.6509C17.7155 15.5354 17.4834 15.4782 17.2501 15.8259C17.018 16.1712 16.351 16.9529 16.1482 17.1839C15.9442 17.4161 15.7414 17.4441 15.3932 17.2714C15.0451 17.0964 13.922 16.7312 12.5915 15.5506C11.5563 14.6312 10.8565 13.4961 10.6537 13.1484C10.4509 12.8019 10.6314 12.6141 10.8061 12.4414C10.9632 12.2862 11.1543 12.0366 11.3289 11.8347C11.5036 11.6317 11.561 11.4871 11.6771 11.2549C11.7943 11.0239 11.7357 10.8221 11.6478 10.6482C11.561 10.4744 10.8647 8.76755 10.574 8.07338C10.2915 7.39788 10.0042 7.49005 9.79089 7.47838C9.58691 7.46905 9.3548 7.46672 9.12269 7.46672C8.89058 7.46672 8.5131 7.55305 8.19424 7.90072C7.87421 8.24722 6.97507 9.08605 6.97507 10.7929C6.97507 12.4895 8.20925 14.1296 8.39419 14.3754L8.39705 14.3792C8.57172 14.6102 10.853 18.1126 14.3475 19.6141C15.1799 19.9711 15.8281 20.1846 16.3334 20.3432C17.1681 20.6081 17.9277 20.5707 18.5279 20.4809C19.1961 20.3817 20.5888 19.6421 20.8795 18.8324C21.1691 18.0227 21.1691 17.3286 21.0823 17.1839C20.9956 17.0392 20.7634 16.9529 20.4141 16.7791H20.4153ZM23.9204 4.06938C22.6288 2.77546 21.092 1.74951 19.399 1.05098C17.7061 0.352456 15.8907 -0.00475562 14.058 4.78072e-05C6.37486 4.78072e-05 0.119573 6.22422 0.117228 13.8741C0.113668 16.3086 0.755388 18.701 1.97764 20.8099L0 28.0001L7.39006 26.0704C9.43437 27.1789 11.7253 27.7597 14.0533 27.7597H14.0592C21.7423 27.7597 27.9976 21.5356 27.9999 13.8846C28.0056 12.0614 27.648 10.2552 26.9477 8.57042C26.2475 6.88568 25.2185 5.35583 23.9204 4.06938Z" fill="#05BB6E"/>
</svg>
